<svg
    xmlns="http://www.w3.org/2000/svg"
    viewBox="0 0 512 512"
>

    <defs>

        <linearGradient
            id="fundo"
            x1="0"
            y1="0"
            x2="1"
            y2="1"
        >

            <stop
                offset="0%"
                stop-color="#7289da"
            />

            <stop
                offset="100%"
                stop-color="#41569e"
            />

        </linearGradient>

    </defs>


    <rect
        width="512"
        height="512"
        rx="105"
        fill="#111318"
    />


    <path
        d="
            M106 104
            C106 82 124 64 146 64
            H248
            C275 64 296 73 312 91
            C328 73 349 64 376 64
            H406
            V384
            H370
            C345 384 326 392 312 407
            C298 392 279 384 254 384
            H146
            C124 384 106 366 106 344
            Z
        "
        fill="url(#fundo)"
    />


    <path
        d="
            M312 102
            V407
        "
        fill="none"
        stroke="#ffffff"
        stroke-width="18"
        stroke-linecap="round"
        opacity="0.9"
    />


    <path
        d="
            M147 131
            H260

            M147 179
            H260

            M147 227
            H239

            M147 275
            H260
        "
        fill="none"
        stroke="#ffffff"
        stroke-width="18"
        stroke-linecap="round"
        opacity="0.9"
    />


    <path
        d="
            M351 138
            H378

            M351 188
            H378

            M351 238
            H378
        "
        fill="none"
        stroke="#ffffff"
        stroke-width="18"
        stroke-linecap="round"
        opacity="0.9"
    />

</svg>